<svg width="65" height="32" viewBox="0 0 65 32" fill="none" xmlns="http://www.w3.org/2000/svg">
<g filter="url(#filter0_b_10700_102)">
<path d="M0 4C0 1.79086 1.79086 0 4 0H65V32H4C1.79086 32 0 30.2091 0 28V4Z" fill="#FDFDFD" fill-opacity="0.4"/>
<path d="M20 21.27L24.15 23.78C24.91 24.24 25.84 23.56 25.64 22.7L24.54 17.98L28.21 14.8C28.88 14.22 28.52 13.12 27.64 13.05L22.81 12.64L20.92 8.17999C20.58 7.36999 19.42 7.36999 19.08 8.17999L17.19 12.63L12.36 13.04C11.48 13.11 11.12 14.21 11.79 14.79L15.46 17.97L14.36 22.69C14.16 23.55 15.09 24.23 15.85 23.77L20 21.27Z" fill="#F2BE22"/>
<path d="M40.886 21V19.124H36.588V17.808L41.194 11.13H42.678V17.64H44.064V19.124H42.678V21H40.886ZM40.886 17.64V13.874L38.31 17.64H40.886ZM45.1505 21V19.054H47.1105V21H45.1505ZM51.3112 21.14C50.7885 21.14 50.2705 21.042 49.7572 20.846C49.2439 20.6407 48.8005 20.3653 48.4272 20.02L49.0292 18.676C49.3652 18.9933 49.7292 19.2313 50.1212 19.39C50.5225 19.5487 50.9239 19.628 51.3252 19.628C52.1465 19.628 52.7719 19.3433 53.2012 18.774C53.6305 18.2047 53.8452 17.3553 53.8452 16.226V15.806C53.6585 16.3193 53.3459 16.7253 52.9072 17.024C52.4685 17.3133 51.9552 17.458 51.3672 17.458C50.8072 17.458 50.3079 17.3227 49.8692 17.052C49.4305 16.7813 49.0805 16.408 48.8192 15.932C48.5672 15.4467 48.4412 14.9007 48.4412 14.294C48.4412 13.65 48.5812 13.0807 48.8612 12.586C49.1412 12.0913 49.5239 11.704 50.0092 11.424C50.5039 11.1347 51.0685 10.99 51.7032 10.99C52.9352 10.99 53.8825 11.4193 54.5452 12.278C55.2079 13.1273 55.5392 14.3313 55.5392 15.89C55.5392 17.5513 55.1659 18.844 54.4192 19.768C53.6725 20.6827 52.6365 21.14 51.3112 21.14ZM51.8152 16.03C52.3192 16.03 52.7252 15.8667 53.0332 15.54C53.3505 15.204 53.5092 14.7653 53.5092 14.224C53.5092 13.6827 53.3505 13.244 53.0332 12.908C52.7252 12.572 52.3192 12.404 51.8152 12.404C51.3112 12.404 50.9005 12.572 50.5832 12.908C50.2752 13.244 50.1212 13.6827 50.1212 14.224C50.1212 14.7653 50.2752 15.204 50.5832 15.54C50.9005 15.8667 51.3112 16.03 51.8152 16.03Z" fill="#1A3E3E"/>
</g>
<defs>
<filter id="filter0_b_10700_102" x="-4" y="-4" width="73" height="40" filterUnits="userSpaceOnUse" color-interpolation-filters="sRGB">
<feFlood flood-opacity="0" result="BackgroundImageFix"/>
<feGaussianBlur in="BackgroundImageFix" stdDeviation="2"/>
<feComposite in2="SourceAlpha" operator="in" result="effect1_backgroundBlur_10700_102"/>
<feBlend mode="normal" in="SourceGraphic" in2="effect1_backgroundBlur_10700_102" result="shape"/>
</filter>
</defs>
</svg>
