<svg width="65" height="32" viewBox="0 0 65 32" fill="none" xmlns="http://www.w3.org/2000/svg">
<g filter="url(#filter0_b_10700_144)">
<path d="M0 4C0 1.79086 1.79086 0 4 0H65V32H4C1.79086 32 0 30.2091 0 28V4Z" fill="#FDFDFD" fill-opacity="0.4"/>
<path d="M20 21.27L24.15 23.78C24.91 24.24 25.84 23.56 25.64 22.7L24.54 17.98L28.21 14.8C28.88 14.22 28.52 13.12 27.64 13.05L22.81 12.64L20.92 8.17999C20.58 7.36999 19.42 7.36999 19.08 8.17999L17.19 12.63L12.36 13.04C11.48 13.11 11.12 14.21 11.79 14.79L15.46 17.97L14.36 22.69C14.16 23.55 15.09 24.23 15.85 23.77L20 21.27Z" fill="#F2BE22"/>
<path d="M40.284 21.14C39.64 21.14 39.0147 21.042 38.408 20.846C37.8013 20.6407 37.3067 20.3653 36.924 20.02L37.512 18.648C38.3613 19.3013 39.276 19.628 40.256 19.628C40.844 19.628 41.3013 19.4787 41.628 19.18C41.964 18.872 42.132 18.4613 42.132 17.948C42.132 17.4253 41.9733 17.0053 41.656 16.688C41.3387 16.3613 40.9047 16.198 40.354 16.198C39.57 16.198 38.9213 16.5107 38.408 17.136H37.204V11.13H43.266V12.614H38.954V15.288C39.4487 14.9147 40.0553 14.728 40.774 14.728C41.3993 14.728 41.9407 14.8633 42.398 15.134C42.8647 15.3953 43.224 15.764 43.476 16.24C43.7373 16.7067 43.868 17.2527 43.868 17.878C43.868 18.522 43.7233 19.0913 43.434 19.586C43.1447 20.0713 42.7293 20.454 42.188 20.734C41.656 21.0047 41.0213 21.14 40.284 21.14ZM45.1505 21V19.054H47.1105V21H45.1505ZM52.0672 21.14C50.9005 21.14 50.0092 20.7013 49.3932 19.824C48.7772 18.9373 48.4692 17.6773 48.4692 16.044C48.4692 14.392 48.7772 13.1367 49.3932 12.278C50.0092 11.4193 50.9005 10.99 52.0672 10.99C53.2432 10.99 54.1345 11.4193 54.7412 12.278C55.3572 13.1367 55.6652 14.3873 55.6652 16.03C55.6652 17.6727 55.3572 18.9373 54.7412 19.824C54.1252 20.7013 53.2339 21.14 52.0672 21.14ZM52.0672 19.67C52.7019 19.67 53.1685 19.3807 53.4672 18.802C53.7752 18.214 53.9292 17.29 53.9292 16.03C53.9292 14.7793 53.7752 13.874 53.4672 13.314C53.1685 12.7447 52.7019 12.46 52.0672 12.46C51.4419 12.46 50.9752 12.7447 50.6672 13.314C50.3592 13.874 50.2052 14.7793 50.2052 16.03C50.2052 17.29 50.3592 18.214 50.6672 18.802C50.9752 19.3807 51.4419 19.67 52.0672 19.67Z" fill="#1A3E3E"/>
</g>
<defs>
<filter id="filter0_b_10700_144" x="-4" y="-4" width="73" height="40" filterUnits="userSpaceOnUse" color-interpolation-filters="sRGB">
<feFlood flood-opacity="0" result="BackgroundImageFix"/>
<feGaussianBlur in="BackgroundImageFix" stdDeviation="2"/>
<feComposite in2="SourceAlpha" operator="in" result="effect1_backgroundBlur_10700_144"/>
<feBlend mode="normal" in="SourceGraphic" in2="effect1_backgroundBlur_10700_144" result="shape"/>
</filter>
</defs>
</svg>
