<svg width="65" height="32" viewBox="0 0 65 32" fill="none" xmlns="http://www.w3.org/2000/svg">
<g filter="url(#filter0_b_10700_127)">
<path d="M0 4C0 1.79086 1.79086 0 4 0H65V32H4C1.79086 32 0 30.2091 0 28V4Z" fill="#FDFDFD" fill-opacity="0.4"/>
<path d="M20 21.27L24.15 23.78C24.91 24.24 25.84 23.56 25.64 22.7L24.54 17.98L28.21 14.8C28.88 14.22 28.52 13.12 27.64 13.05L22.81 12.64L20.92 8.17999C20.58 7.36999 19.42 7.36999 19.08 8.17999L17.19 12.63L12.36 13.04C11.48 13.11 11.12 14.21 11.79 14.79L15.46 17.97L14.36 22.69C14.16 23.55 15.09 24.23 15.85 23.77L20 21.27Z" fill="#F2BE22"/>
<path d="M40.886 21V19.124H36.588V17.808L41.194 11.13H42.678V17.64H44.064V19.124H42.678V21H40.886ZM40.886 17.64V13.874L38.31 17.64H40.886ZM45.1505 21V19.054H47.1105V21H45.1505ZM52.1512 21.14C51.5072 21.14 50.8819 21.042 50.2752 20.846C49.6685 20.6407 49.1739 20.3653 48.7912 20.02L49.3792 18.648C50.2285 19.3013 51.1432 19.628 52.1232 19.628C52.7112 19.628 53.1685 19.4787 53.4952 19.18C53.8312 18.872 53.9992 18.4613 53.9992 17.948C53.9992 17.4253 53.8405 17.0053 53.5232 16.688C53.2059 16.3613 52.7719 16.198 52.2212 16.198C51.4372 16.198 50.7885 16.5107 50.2752 17.136H49.0712V11.13H55.1332V12.614H50.8212V15.288C51.3159 14.9147 51.9225 14.728 52.6412 14.728C53.2665 14.728 53.8079 14.8633 54.2652 15.134C54.7319 15.3953 55.0912 15.764 55.3432 16.24C55.6045 16.7067 55.7352 17.2527 55.7352 17.878C55.7352 18.522 55.5905 19.0913 55.3012 19.586C55.0119 20.0713 54.5965 20.454 54.0552 20.734C53.5232 21.0047 52.8885 21.14 52.1512 21.14Z" fill="#1A3E3E"/>
</g>
<defs>
<filter id="filter0_b_10700_127" x="-4" y="-4" width="73" height="40" filterUnits="userSpaceOnUse" color-interpolation-filters="sRGB">
<feFlood flood-opacity="0" result="BackgroundImageFix"/>
<feGaussianBlur in="BackgroundImageFix" stdDeviation="2"/>
<feComposite in2="SourceAlpha" operator="in" result="effect1_backgroundBlur_10700_127"/>
<feBlend mode="normal" in="SourceGraphic" in2="effect1_backgroundBlur_10700_127" result="shape"/>
</filter>
</defs>
</svg>
